<svg width="265" height="265" viewBox="0 0 265 265" fill="none" xmlns="http://www.w3.org/2000/svg">
<path d="M131.24 208.098C102.095 97.8535 193.333 45.8992 235.622 45.8992C244.021 88.9832 244.019 172.617 146.447 210.632C136.505 195.497 170.209 130.141 189.267 115.791C186.514 117.852 163.025 135.803 154.05 154.877C145.421 173.213 131.24 208.098 131.24 208.098Z" fill="url(#paint0_linear_305_342)"/>
<path d="M135.031 261.32C209.035 261.32 227.536 195.849 225.001 167.548C215 182.787 212.5 185.287 188.5 200.787C174.5 207.787 147.714 223.305 131.24 235.977C85.6218 120.663 163.769 61.9507 171.79 58.5715C165.352 47.4204 138.227 1.79503 132.507 4.08311C126.172 4.08229 102.764 35.4834 86.8892 58.5715C73.8951 77.4704 61.3662 94.4343 52.6753 114.327C36.0018 152.492 38.692 176.725 40.0038 186.556C42.1158 206.408 61.0281 261.32 135.031 261.32Z" fill="url(#paint1_linear_305_342)" stroke="url(#paint2_linear_305_342)"/>
<path d="M92.4516 79.5996C71.8108 98.0729 55.4088 128.035 73.5198 126.354C90.2143 124.805 92.4516 79.5996 92.4516 79.5996Z" fill="white" stroke="white"/>
<defs>
<linearGradient id="paint0_linear_305_342" x1="234.5" y1="46" x2="126" y2="211" gradientUnits="userSpaceOnUse">
<stop offset="0.216346" stop-color="#B9E670"/>
<stop offset="0.634615" stop-color="#6CAC49"/>
<stop offset="1" stop-color="#1E7121"/>
</linearGradient>
<linearGradient id="paint1_linear_305_342" x1="132" y1="261" x2="132" y2="4" gradientUnits="userSpaceOnUse">
<stop stop-color="#001D67"/>
<stop offset="1" stop-color="#389DCF" stop-opacity="0.3"/>
</linearGradient>
<linearGradient id="paint2_linear_305_342" x1="132" y1="261" x2="132" y2="4" gradientUnits="userSpaceOnUse">
<stop stop-color="#001D67"/>
<stop offset="1" stop-color="#389DCF" stop-opacity="0.3"/>
</linearGradient>
</defs>
</svg>
