<svg width="100" height="100" viewBox="0 0 100 100" fill="none" xmlns="http://www.w3.org/2000/svg">
<path d="M64.4705 15.0002C63.9696 15.0081 63.4923 15.2143 63.1433 15.5737C62.7943 15.933 62.6022 16.4162 62.6091 16.917V22.5899C62.6055 22.8405 62.6518 23.0893 62.7453 23.3218C62.8387 23.5544 62.9774 23.766 63.1534 23.9444C63.3293 24.1229 63.5389 24.2646 63.7701 24.3613C64.0013 24.458 64.2494 24.5078 64.5 24.5078C64.7506 24.5078 64.9987 24.458 65.2299 24.3613C65.4611 24.2646 65.6707 24.1229 65.8466 23.9444C66.0226 23.766 66.1613 23.5544 66.2547 23.3218C66.3482 23.0893 66.3945 22.8405 66.3909 22.5899V16.917C66.3944 16.6641 66.3471 16.4129 66.2517 16.1786C66.1564 15.9442 66.015 15.7314 65.8359 15.5526C65.6568 15.3739 65.4437 15.2329 65.2092 15.138C64.9746 15.0431 64.7234 14.9963 64.4705 15.0002ZM47.0975 22.2095C46.7216 22.2104 46.3546 22.3232 46.0431 22.5336C45.7317 22.744 45.49 23.0424 45.3489 23.3908C45.2078 23.7391 45.1737 24.1217 45.251 24.4895C45.3282 24.8573 45.5134 25.1938 45.7827 25.4559L49.7936 29.4668C49.9678 29.6483 50.1765 29.7932 50.4074 29.893C50.6384 29.9928 50.8869 30.0456 51.1385 30.0481C51.39 30.0507 51.6396 30.003 51.8725 29.9079C52.1054 29.8128 52.317 29.6722 52.4949 29.4943C52.6728 29.3164 52.8134 29.1048 52.9085 28.8719C53.0036 28.639 53.0513 28.3894 53.0487 28.1378C53.0462 27.8863 52.9934 27.6377 52.8936 27.4068C52.7938 27.1758 52.6489 26.9671 52.4675 26.7929L48.4566 22.782C48.28 22.6004 48.0686 22.4562 47.8352 22.3578C47.6017 22.2595 47.3508 22.2091 47.0975 22.2095ZM81.8434 22.2095C81.3521 22.2242 80.8859 22.4295 80.5434 22.782L76.5325 26.7929C76.3511 26.9671 76.2062 27.1758 76.1064 27.4068C76.0066 27.6377 75.9538 27.8863 75.9513 28.1378C75.9487 28.3894 75.9964 28.639 76.0915 28.8719C76.1866 29.1048 76.3272 29.3164 76.5051 29.4943C76.683 29.6722 76.8946 29.8128 77.1275 29.9079C77.3604 30.003 77.61 30.0507 77.8615 30.0481C78.1131 30.0456 78.3616 29.9928 78.5926 29.893C78.8235 29.7932 79.0322 29.6483 79.2064 29.4668L83.2173 25.4559C83.4905 25.1903 83.6772 24.8484 83.7527 24.4749C83.8283 24.1014 83.7892 23.7137 83.6407 23.3628C83.4922 23.0119 83.2411 22.714 82.9204 22.5082C82.5997 22.3024 82.2243 22.1983 81.8434 22.2095ZM64.5 28.2628C60.9895 28.2628 57.6227 29.6574 55.1404 32.1398C52.658 34.6222 51.2635 37.989 51.2635 41.4996C51.2635 45.0102 52.658 48.377 55.1404 50.8594C57.6227 53.3417 60.9895 54.7363 64.5 54.7363C68.0105 54.7363 71.3773 53.3417 73.8596 50.8594C76.342 48.377 77.7365 45.0102 77.7365 41.4996C77.7365 37.989 76.342 34.6222 73.8596 32.1398C71.3773 29.6574 68.0105 28.2628 64.5 28.2628ZM39.9179 39.6086C39.6673 39.6051 39.4185 39.6514 39.186 39.7448C38.9535 39.8382 38.7418 39.977 38.5634 40.1529C38.3849 40.3289 38.2432 40.5385 38.1465 40.7697C38.0498 41.0009 38 41.249 38 41.4996C38 41.7502 38.0498 41.9983 38.1465 42.2295C38.2432 42.4606 38.3849 42.6703 38.5634 42.8462C38.7418 43.0222 38.9535 43.1609 39.186 43.2544C39.4185 43.3478 39.6673 43.3941 39.9179 43.3905H45.5907C45.8412 43.3941 46.09 43.3478 46.3225 43.2544C46.5551 43.1609 46.7667 43.0222 46.9451 42.8462C47.1236 42.6703 47.2653 42.4606 47.362 42.2295C47.4587 41.9983 47.5085 41.7502 47.5085 41.4996C47.5085 41.249 47.4587 41.0009 47.362 40.7697C47.2653 40.5385 47.1236 40.3289 46.9451 40.1529C46.7667 39.977 46.5551 39.8382 46.3225 39.7448C46.09 39.6514 45.8412 39.6051 45.5907 39.6086H39.9179ZM83.4093 39.6086C83.1588 39.6051 82.91 39.6514 82.6775 39.7448C82.4449 39.8382 82.2333 39.977 82.0549 40.1529C81.8764 40.3289 81.7347 40.5385 81.638 40.7697C81.5413 41.0009 81.4915 41.249 81.4915 41.4996C81.4915 41.7502 81.5413 41.9983 81.638 42.2295C81.7347 42.4606 81.8764 42.6703 82.0549 42.8462C82.2333 43.0222 82.4449 43.1609 82.6775 43.2544C82.91 43.3478 83.1588 43.3941 83.4093 43.3905H89.0821C89.3327 43.3941 89.5815 43.3478 89.814 43.2544C90.0465 43.1609 90.2582 43.0222 90.4366 42.8462C90.6151 42.6703 90.7568 42.4606 90.8535 42.2295C90.9502 41.9983 91 41.7502 91 41.4996C91 41.249 90.9502 41.0009 90.8535 40.7697C90.7568 40.5385 90.6151 40.3289 90.4366 40.1529C90.2582 39.977 90.0465 39.8382 89.814 39.7448C89.5815 39.6514 89.3327 39.6051 89.0821 39.6086H83.4093ZM51.0936 52.9599C50.6023 52.9745 50.1361 53.1798 49.7936 53.5323L45.7827 57.5432C45.6012 57.7175 45.4564 57.9262 45.3565 58.1571C45.2567 58.388 45.204 58.6366 45.2015 58.8882C45.1989 59.1397 45.2466 59.3893 45.3417 59.6222C45.4367 59.8551 45.5774 60.0667 45.7553 60.2446C45.9331 60.4225 46.1448 60.5631 46.3777 60.6582C46.6106 60.7533 46.8601 60.801 47.1117 60.7984C47.3633 60.7959 47.6118 60.7431 47.8427 60.6433C48.0737 60.5435 48.2824 60.3986 48.4566 60.2172L52.4675 56.2063C52.7407 55.9406 52.9273 55.5987 53.0029 55.2252C53.0785 54.8517 53.0394 54.4641 52.8909 54.1131C52.7424 53.7622 52.4913 53.4643 52.1706 53.2585C51.8499 53.0527 51.4745 52.9486 51.0936 52.9599ZM77.851 52.9599C77.4749 52.9599 77.1073 53.0722 76.7952 53.2823C76.4832 53.4925 76.2409 53.7909 76.0994 54.1394C75.9578 54.4879 75.9235 54.8707 76.0006 55.2389C76.0778 55.6071 76.263 55.9439 76.5325 56.2063L80.5434 60.2172C80.7176 60.3986 80.9263 60.5435 81.1573 60.6433C81.3882 60.7431 81.6367 60.7959 81.8883 60.7984C82.1399 60.801 82.3894 60.7533 82.6223 60.6582C82.8552 60.5631 83.0668 60.4225 83.2447 60.2446C83.4226 60.0667 83.5632 59.8551 83.6583 59.6222C83.7534 59.3893 83.8011 59.1397 83.7985 58.8881C83.796 58.6366 83.7433 58.388 83.6434 58.1571C83.5436 57.9262 83.3988 57.7175 83.2173 57.5432L79.2064 53.5323C79.0302 53.3512 78.8195 53.2072 78.5867 53.1089C78.3539 53.0105 78.1037 52.9599 77.851 52.9599ZM64.4705 58.4924C63.9696 58.5002 63.4923 58.7065 63.1433 59.0658C62.7943 59.4252 62.6022 59.9083 62.6091 60.4092V66.0821C62.6055 66.3327 62.6518 66.5815 62.7453 66.814C62.8387 67.0465 62.9774 67.2582 63.1534 67.4366C63.3293 67.6151 63.5389 67.7568 63.7701 67.8535C64.0013 67.9502 64.2494 68 64.5 68C64.7506 68 64.9987 67.9502 65.2299 67.8535C65.4611 67.7568 65.6707 67.6151 65.8466 67.4366C66.0226 67.2582 66.1613 67.0465 66.2547 66.814C66.3482 66.5815 66.3945 66.3327 66.3909 66.0821V60.4092C66.3944 60.1562 66.3471 59.9051 66.2517 59.6707C66.1564 59.4364 66.015 59.2235 65.8359 59.0448C65.6568 58.866 65.4437 58.7251 65.2092 58.6302C64.9746 58.5353 64.7234 58.4884 64.4705 58.4924Z" fill="#FF945F"/>
<path d="M68.6933 56.875C66.5658 46.0938 57.2233 38 46 38C37.0892 38 29.35 43.125 25.4958 50.625C16.215 51.625 9 59.5938 9 69.25C9 79.5938 17.2942 88 27.5 88H67.5833C76.0933 88 83 81 83 72.375C83 64.125 76.6792 57.4375 68.6933 56.875Z" fill="#EFEFEF"/>
</svg>
