<svg width="100" height="100" viewBox="0 0 100 100" fill="none" xmlns="http://www.w3.org/2000/svg">
<path d="M84.08 39.4975C82.01 28.9319 72.92 21 62 21C53.33 21 45.8 26.0225 42.05 33.3725C33.02 34.3525 26 42.1619 26 51.625C26 61.7619 34.07 70 44 70H83C91.28 70 98 63.14 98 54.6875C98 46.6025 91.85 40.0487 84.08 39.4975Z" fill="#888888"/>
<path d="M62.6933 49.875C60.5658 39.0938 51.2233 31 40 31C31.0892 31 23.35 36.125 19.4958 43.625C10.215 44.625 3 52.5938 3 62.25C3 72.5938 11.2942 81 21.5 81H61.5833C70.0933 81 77 74 77 65.375C77 57.125 70.6792 50.4375 62.6933 49.875Z" fill="#EFEFEF"/>
</svg>
