<svg width="100" height="100" viewBox="0 0 100 100" fill="none" xmlns="http://www.w3.org/2000/svg">
<path d="M72.2 31.325C70.4375 20.675 61.1375 12.5 50 12.5C41.825 12.5 34.3625 16.925 30.425 23.975C20.3375 25.2875 12.5 34.025 12.5 44.375C12.5 55.7375 21.7625 65 33.125 65H70.625C79.925 65 87.5 57.425 87.5 48.125C87.5 39.35 80.7875 32.1125 72.2 31.325ZM72.5 68.7875C74.5625 68.7875 76.25 70.475 76.25 72.5375C76.25 74.6 74.5625 76.2875 72.5 76.2875C70.4375 76.2875 68.75 74.6 68.75 72.5375C68.75 70.475 70.4375 68.7875 72.5 68.7875ZM31.25 80.0375C33.3125 80.0375 35 81.725 35 83.7875C35 85.85 33.3125 87.5375 31.25 87.5375C29.1875 87.5375 27.5 85.85 27.5 83.7875C27.5 81.725 29.1875 80.0375 31.25 80.0375ZM27.5 68.7875H61.25C63.3125 68.7875 65 70.475 65 72.5375C65 74.6 63.3125 76.2875 61.25 76.2875H27.5C25.4375 76.2875 23.75 74.6 23.75 72.5375C23.75 70.475 25.4375 68.7875 27.5 68.7875ZM42.5 80.0375H68.75C70.8125 80.0375 72.5 81.725 72.5 83.7875C72.5 85.85 70.8125 87.5375 68.75 87.5375H42.5C40.4375 87.5375 38.75 85.85 38.75 83.7875C38.75 81.725 40.4375 80.0375 42.5 80.0375Z" fill="#EFEFEF"/>
</svg>
