<svg width="100" height="100" viewBox="0 0 100 100" fill="none" xmlns="http://www.w3.org/2000/svg">
<path d="M72.6933 33.875C70.5658 23.0938 61.2233 15 50 15C41.0892 15 33.35 20.125 29.4958 27.625C20.215 28.625 13 36.5938 13 46.25C13 56.5938 21.2942 65 31.5 65H71.5833C80.0933 65 87 58 87 49.375C87 41.125 80.6792 34.4375 72.6933 33.875Z" fill="#EFEFEF"/>
<path d="M26.2796 70.5617L16.4787 81.8075C15.8338 82.5417 15.8418 83.731 16.4947 84.4573C16.8131 84.8164 17.2351 85 17.6571 85C18.087 85 18.509 84.8164 18.8354 84.4413L28.6363 73.1956C29.2812 72.4613 29.2732 71.2721 28.6203 70.5458C27.9675 69.8115 26.9165 69.8195 26.2796 70.5617ZM41.5104 70.5458C40.8575 69.8195 39.8145 69.8274 39.1696 70.5617L34.2732 76.1806C33.6283 76.9149 33.6362 78.1041 34.2891 78.8304C34.6076 79.1896 35.0295 79.3731 35.4515 79.3731C35.8814 79.3731 36.3034 79.1896 36.6298 78.8144L41.5263 73.1956C42.1712 72.4533 42.1632 71.2721 41.5104 70.5458ZM65.1646 70.5617L60.2681 76.1806C59.6232 76.9149 59.6312 78.1041 60.2841 78.8304C60.6025 79.1896 61.0245 79.3731 61.4465 79.3731C61.8764 79.3731 62.2984 79.1896 62.6248 78.8144L67.5213 73.1956C68.1662 72.4613 68.1582 71.2721 67.5053 70.5458C66.8525 69.8115 65.8095 69.8195 65.1646 70.5617ZM52.2826 70.5617L42.4817 81.8075C41.8368 82.5417 41.8447 83.731 42.4976 84.4573C42.8161 84.8164 43.238 85 43.66 85C44.0899 85 44.5119 84.8164 44.8384 84.4413L54.6313 73.1956C55.2762 72.4613 55.2682 71.2721 54.6153 70.5458C53.9704 69.8115 52.9195 69.8195 52.2826 70.5617Z" fill="#888888"/>
</svg>
