<svg width="100" height="100" viewBox="0 0 100 100" fill="none" xmlns="http://www.w3.org/2000/svg">
<path d="M85 46.5H70.405L81.745 35.16L76.81 30.19L60.5 46.5H53.5V39.5L69.81 23.19L64.84 18.255L53.5 29.595V15H46.5V29.595L35.16 18.255L30.19 23.19L46.5 39.5V46.5H39.5L23.19 30.19L18.255 35.16L29.595 46.5H15V53.5H29.595L18.255 64.84L23.19 69.81L39.5 53.5H46.5V60.5L30.19 76.81L35.16 81.745L46.5 70.405V85H53.5V70.405L64.84 81.745L69.81 76.81L53.5 60.5V53.5H60.5L76.81 69.81L81.745 64.84L70.405 53.5H85V46.5Z" fill="#CDE6F2"/>
</svg>
