<svg width="100" height="100" viewBox="0 0 100 100" fill="none" xmlns="http://www.w3.org/2000/svg">
<path d="M49.9479 3.28776C49.065 3.30156 48.2237 3.66509 47.6085 4.29857C46.9933 4.93205 46.6546 5.78372 46.6667 6.66667V16.6667C46.6604 17.1084 46.7421 17.5469 46.9068 17.9568C47.0715 18.3667 47.316 18.7398 47.6262 19.0543C47.9363 19.3689 48.3059 19.6187 48.7134 19.7892C49.1209 19.9597 49.5583 20.0475 50 20.0475C50.4418 20.0475 50.8791 19.9597 51.2866 19.7892C51.6942 19.6187 52.0637 19.3689 52.3739 19.0543C52.684 18.7398 52.9286 18.3667 53.0933 17.9568C53.258 17.5469 53.3396 17.1084 53.3334 16.6667V6.66667C53.3395 6.2207 53.256 5.77805 53.088 5.36491C52.9199 4.95178 52.6707 4.57656 52.355 4.26149C52.0393 3.94642 51.6636 3.6979 51.2502 3.53064C50.8367 3.36339 50.3939 3.28079 49.9479 3.28776ZM19.3229 15.9961C18.6604 15.9976 18.0133 16.1964 17.4643 16.5673C16.9152 16.9382 16.4892 17.4642 16.2405 18.0783C15.9917 18.6924 15.9317 19.3667 16.0679 20.0151C16.2041 20.6635 16.5304 21.2566 17.0052 21.7188L24.0756 28.7891C24.3827 29.109 24.7506 29.3644 25.1577 29.5403C25.5648 29.7163 26.0029 29.8092 26.4464 29.8137C26.8898 29.8182 27.3297 29.7342 27.7403 29.5666C28.1509 29.3989 28.5239 29.1511 28.8375 28.8375C29.1511 28.5239 29.399 28.1509 29.5666 27.7403C29.7342 27.3297 29.8183 26.8898 29.8137 26.4463C29.8092 26.0029 29.7163 25.5648 29.5403 25.1577C29.3644 24.7506 29.109 24.3827 28.7891 24.0755L21.7188 17.0052C21.4074 16.6851 21.0348 16.4308 20.6233 16.2575C20.2117 16.0841 19.7695 15.9952 19.3229 15.9961ZM80.5729 15.9961C79.7069 16.0219 78.885 16.3838 78.2813 17.0052L71.211 24.0755C70.8911 24.3827 70.6357 24.7506 70.4597 25.1577C70.2838 25.5648 70.1908 26.0029 70.1863 26.4463C70.1818 26.8898 70.2658 27.3297 70.4335 27.7403C70.6011 28.1509 70.849 28.5239 71.1626 28.8375C71.4762 29.1511 71.8492 29.3989 72.2598 29.5666C72.6703 29.7342 73.1102 29.8182 73.5537 29.8137C73.9972 29.8092 74.4353 29.7162 74.8424 29.5403C75.2495 29.3644 75.6174 29.109 75.9245 28.7891L82.9948 21.7188C83.4765 21.2505 83.8055 20.6477 83.9387 19.9893C84.0719 19.3309 84.0031 18.6477 83.7413 18.029C83.4795 17.4104 83.0369 16.8853 82.4715 16.5226C81.9062 16.1598 81.2444 15.9763 80.5729 15.9961ZM50 26.6667C43.8116 26.6667 37.8767 29.125 33.5009 33.5008C29.125 37.8767 26.6667 43.8116 26.6667 50C26.6667 56.1884 29.125 62.1233 33.5009 66.4992C37.8767 70.875 43.8116 73.3333 50 73.3333C56.1884 73.3333 62.1233 70.875 66.4992 66.4992C70.875 62.1233 73.3334 56.1884 73.3334 50C73.3334 43.8116 70.875 37.8767 66.4992 33.5008C62.1233 29.125 56.1884 26.6667 50 26.6667ZM6.6667 46.6667C6.22499 46.6604 5.78645 46.742 5.37655 46.9067C4.96666 47.0714 4.59359 47.316 4.27902 47.6261C3.96446 47.9363 3.71467 48.3059 3.54418 48.7134C3.37369 49.1209 3.28589 49.5583 3.28589 50C3.28589 50.4418 3.37369 50.8791 3.54418 51.2866C3.71467 51.6941 3.96446 52.0637 4.27902 52.3739C4.59359 52.684 4.96666 52.9286 5.37655 53.0933C5.78645 53.258 6.22499 53.3396 6.6667 53.3333H16.6667C17.1084 53.3396 17.5469 53.258 17.9568 53.0933C18.3667 52.9286 18.7398 52.684 19.0544 52.3739C19.3689 52.0637 19.6187 51.6941 19.7892 51.2866C19.9597 50.8791 20.0475 50.4418 20.0475 50C20.0475 49.5583 19.9597 49.1209 19.7892 48.7134C19.6187 48.3059 19.3689 47.9363 19.0544 47.6261C18.7398 47.316 18.3667 47.0714 17.9568 46.9067C17.5469 46.742 17.1084 46.6604 16.6667 46.6667H6.6667ZM83.3334 46.6667C82.8917 46.6604 82.4531 46.742 82.0432 46.9067C81.6333 47.0714 81.2602 47.316 80.9457 47.6261C80.6311 47.9363 80.3813 48.3059 80.2108 48.7134C80.0403 49.1209 79.9526 49.5583 79.9526 50C79.9526 50.4418 80.0403 50.8791 80.2108 51.2866C80.3813 51.6941 80.6311 52.0637 80.9457 52.3739C81.2602 52.684 81.6333 52.9286 82.0432 53.0933C82.4531 53.258 82.8917 53.3396 83.3334 53.3333H93.3334C93.7751 53.3396 94.2136 53.258 94.6235 53.0933C95.0334 52.9286 95.4065 52.684 95.721 52.3739C96.0356 52.0637 96.2854 51.6941 96.4559 51.2866C96.6264 50.8791 96.7142 50.4418 96.7142 50C96.7142 49.5583 96.6264 49.1209 96.4559 48.7134C96.2854 48.3059 96.0356 47.9363 95.721 47.6261C95.4065 47.316 95.0334 47.0714 94.6235 46.9067C94.2136 46.742 93.7751 46.6604 93.3334 46.6667H83.3334ZM26.3672 70.2018C25.5012 70.2276 24.6793 70.5896 24.0756 71.2109L17.0052 78.2812C16.6853 78.5884 16.4299 78.9563 16.254 79.3634C16.0781 79.7705 15.9851 80.2086 15.9806 80.6521C15.9761 81.0955 16.0601 81.5354 16.2277 81.946C16.3954 82.3566 16.6432 82.7296 16.9568 83.0432C17.2704 83.3568 17.6434 83.6047 18.054 83.7723C18.4646 83.9399 18.9045 84.0239 19.348 84.0194C19.7914 84.0149 20.2295 83.922 20.6366 83.746C21.0437 83.5701 21.4116 83.3147 21.7188 82.9948L28.7891 75.9245C29.2708 75.4563 29.5998 74.8535 29.733 74.1951C29.8662 73.5367 29.7973 72.8534 29.5355 72.2348C29.2737 71.6162 28.8312 71.0911 28.2658 70.7283C27.7004 70.3655 27.0387 70.182 26.3672 70.2018ZM73.5352 70.2018C72.8721 70.202 72.2241 70.3999 71.674 70.7703C71.124 71.1407 70.6969 71.6667 70.4474 72.2811C70.1979 72.8954 70.1373 73.5703 70.2733 74.2193C70.4093 74.8683 70.7358 75.462 71.211 75.9245L78.2813 82.9948C78.5884 83.3147 78.9563 83.5701 79.3634 83.746C79.7705 83.922 80.2086 84.0149 80.6521 84.0194C81.0955 84.0239 81.5354 83.9399 81.946 83.7723C82.3566 83.6046 82.7296 83.3568 83.0432 83.0432C83.3568 82.7296 83.6047 82.3566 83.7723 81.946C83.9399 81.5354 84.0239 81.0955 84.0194 80.652C84.0149 80.2086 83.922 79.7705 83.7461 79.3634C83.5701 78.9563 83.3147 78.5884 82.9948 78.2812L75.9245 71.2109C75.6139 70.8916 75.2424 70.6378 74.832 70.4645C74.4216 70.2912 73.9807 70.2019 73.5352 70.2018ZM49.9479 79.9544C49.065 79.9682 48.2237 80.3318 47.6085 80.9652C46.9933 81.5987 46.6546 82.4504 46.6667 83.3333V93.3333C46.6604 93.775 46.7421 94.2136 46.9068 94.6235C47.0715 95.0334 47.316 95.4064 47.6262 95.721C47.9363 96.0356 48.3059 96.2854 48.7134 96.4559C49.1209 96.6264 49.5583 96.7141 50 96.7141C50.4418 96.7141 50.8791 96.6264 51.2866 96.4559C51.6942 96.2854 52.0637 96.0356 52.3739 95.721C52.684 95.4064 52.9286 95.0334 53.0933 94.6235C53.258 94.2136 53.3396 93.775 53.3334 93.3333V83.3333C53.3395 82.8874 53.256 82.4447 53.088 82.0316C52.9199 81.6184 52.6707 81.2432 52.355 80.9282C52.0393 80.6131 51.6636 80.3646 51.2502 80.1973C50.8367 80.0301 50.3939 79.9475 49.9479 79.9544Z" fill="#FF945F"/>
</svg>
