<svg width="100" height="100" viewBox="0 0 100 100" fill="none" xmlns="http://www.w3.org/2000/svg">
<path d="M83.08 39.4975C81.01 28.9319 71.92 21 61 21C52.33 21 44.8 26.0225 41.05 33.3725C32.02 34.3525 25 42.1619 25 51.625C25 61.7619 33.07 70 43 70H82C90.28 70 97 63.14 97 54.6875C97 46.6025 90.85 40.0487 83.08 39.4975Z" fill="#888888"/>
<path d="M62.6933 49.875C60.5658 39.0938 51.2233 31 40 31C31.0892 31 23.35 36.125 19.4958 43.625C10.215 44.625 3 52.5938 3 62.25C3 72.5938 11.2942 81 21.5 81H61.5833C70.0933 81 77 74 77 65.375C77 57.125 70.6792 50.4375 62.6933 49.875Z" fill="#EFEFEF"/>
<path d="M48.6914 62.2959L38.3261 75.2861C37.6858 76.098 38.046 77.5958 38.9064 77.7078L47.0005 78.7996L42.148 88.2623C41.9279 88.6962 41.9579 89.2981 42.2281 89.6761C42.5282 90.096 42.9985 90.11 43.3086 89.7041L53.6739 76.7139C54.3142 75.902 53.954 74.4042 53.0936 74.2922L44.9995 73.2004L49.852 63.7377C50.0721 63.3038 50.0421 62.7019 49.7719 62.3239C49.4718 61.904 49.0015 61.89 48.6914 62.2959Z" fill="#FF8383"/>
</svg>
