<svg width="327" height="79" viewBox="0 0 327 79" fill="none" xmlns="http://www.w3.org/2000/svg">
<path d="M28.4739 61.7914C19.7931 28.9547 46.9684 13.48 59.5645 13.48C62.0659 26.3127 62.0656 51.2233 33.0032 62.5463C30.0422 58.038 40.0809 38.5717 45.7575 34.2974C44.9375 34.9113 37.9412 40.2583 35.2678 45.9392C32.6976 51.4009 28.4739 61.7914 28.4739 61.7914Z" fill="url(#paint0_linear_235_305)"/>
<path d="M29.6032 77.6435C51.6453 77.6435 57.156 58.1428 56.4011 49.7134C53.4221 54.2523 52.6775 54.997 45.529 59.6137C41.3591 61.6987 33.3807 66.3206 28.474 70.095C14.8864 35.7486 38.1629 18.2608 40.5519 17.2543C38.6343 13.9329 30.5552 0.343243 28.8514 1.02475C26.9643 1.02451 19.9922 10.3774 15.2639 17.2543C11.3936 22.8834 7.66178 27.9362 5.07317 33.8614C0.106919 45.2289 0.908193 52.4466 1.29894 55.3749C1.928 61.288 7.56109 77.6435 29.6032 77.6435Z" fill="url(#paint1_linear_235_305)" stroke="url(#paint2_linear_235_305)"/>
<path d="M16.9208 23.5177C10.7728 29.02 5.88746 37.9444 11.2819 37.4438C16.2544 36.9823 16.9208 23.5177 16.9208 23.5177Z" fill="white" stroke="white"/>
<path d="M110.099 57.8218H103.507V43.8691H90.5433V57.8218H83.9515C84.1126 56.9429 84.2078 55.6904 84.2371 54.0645C84.2664 52.4385 84.2811 50.5415 84.2811 48.3735V35.1899C84.2811 33.022 84.2664 31.125 84.2371 29.499C84.2078 27.873 84.1126 26.6206 83.9515 25.7417H90.5433V38.9253H103.507V25.7417H110.099C109.938 26.6206 109.843 27.873 109.813 29.499C109.784 31.125 109.769 33.022 109.769 35.1899V48.3735C109.769 50.5415 109.784 52.4385 109.813 54.0645C109.843 55.6904 109.938 56.9429 110.099 57.8218ZM130.687 60.7002V64.4136H115.614V61.2715C116.654 60.5684 117.753 59.7554 118.91 58.8325C120.067 57.9243 121.151 56.9575 122.162 55.9321C123.173 54.9067 123.993 53.8813 124.623 52.856C125.267 51.8159 125.59 50.8345 125.59 49.9116C125.59 49.0767 125.311 48.3442 124.755 47.7144C124.198 47.0845 123.334 46.7695 122.162 46.7695C121.21 46.7695 120.206 47.0186 119.152 47.5166C118.097 48.0146 117.225 48.6445 116.537 49.4062L115.548 45.9785C116.237 45.1875 117.247 44.5283 118.58 44.001C119.913 43.4736 121.232 43.21 122.535 43.21C124.762 43.21 126.564 43.752 127.941 44.8359C129.318 45.9053 130.006 47.3628 130.006 49.2085C130.006 50.3657 129.713 51.5083 129.127 52.6362C128.556 53.7642 127.816 54.8408 126.908 55.8662C126.014 56.877 125.07 57.8145 124.074 58.6787C123.077 59.543 122.155 60.29 121.305 60.9199H125.392C126.901 60.9199 128.007 60.9053 128.71 60.876C129.413 60.8613 130.072 60.8027 130.687 60.7002ZM156.593 42.1113C156.593 39.7236 156.256 37.6729 155.582 35.959C154.909 34.2305 153.978 32.9048 152.792 31.9819C151.605 31.0444 150.236 30.5757 148.683 30.5757C147.145 30.5757 145.768 31.0225 144.552 31.916C143.351 32.7949 142.399 34.0474 141.696 35.6733C141.007 37.2993 140.663 39.2256 140.663 41.4521C140.663 43.8105 141 45.854 141.674 47.5825C142.362 49.311 143.307 50.644 144.508 51.5815C145.709 52.519 147.101 52.9878 148.683 52.9878C150.148 52.9878 151.473 52.5557 152.66 51.6914C153.861 50.8271 154.813 49.582 155.516 47.9561C156.234 46.3301 156.593 44.3818 156.593 42.1113ZM162.855 41.562C162.855 44.1987 162.46 46.5571 161.669 48.6372C160.892 50.7173 159.83 52.4824 158.483 53.9326C157.135 55.3682 155.597 56.4668 153.868 57.2285C152.14 57.9902 150.338 58.3711 148.463 58.3711C145.944 58.3711 143.615 57.7412 141.476 56.4814C139.337 55.207 137.623 53.354 136.334 50.9224C135.045 48.4761 134.401 45.5024 134.401 42.0015C134.401 39.3647 134.789 37.0137 135.565 34.9482C136.356 32.8682 137.433 31.103 138.795 29.6528C140.158 28.2026 141.703 27.0967 143.431 26.335C145.175 25.5732 146.998 25.1924 148.903 25.1924C151.408 25.1924 153.715 25.8296 155.824 27.104C157.948 28.3638 159.647 30.2095 160.922 32.6411C162.211 35.0728 162.855 38.0464 162.855 41.562ZM167.47 35.4097H173.512C173.673 35.7319 173.834 36.208 173.995 36.8379C174.157 37.4678 174.288 38.2368 174.391 39.145C175.402 37.9146 176.581 36.9111 177.929 36.1348C179.291 35.3584 180.77 34.9702 182.367 34.9702C184.008 34.9702 185.436 35.4463 186.652 36.3984C187.882 37.3506 188.834 38.6616 189.508 40.3315C190.197 42.0015 190.541 43.9131 190.541 46.0664C190.541 48.5713 190.101 50.7466 189.222 52.5923C188.344 54.4233 187.157 55.8442 185.663 56.855C184.183 57.8657 182.543 58.3711 180.741 58.3711C179.584 58.3711 178.544 58.188 177.621 57.8218C176.713 57.4702 175.746 56.9941 174.721 56.3936V61.1177C174.721 62.8755 174.764 64.3257 174.852 65.4683C174.94 66.6108 175.079 67.6509 175.27 68.5884H168.568C168.568 65.0142 168.568 61.4399 168.568 57.8657C168.568 54.3062 168.568 50.7393 168.568 47.165C168.568 44.4258 168.51 42.0967 168.392 40.1777C168.275 38.2441 167.968 36.6548 167.47 35.4097ZM174.721 44.9678V51.23C175.848 52.0503 176.698 52.5996 177.269 52.8779C177.855 53.1562 178.529 53.2954 179.291 53.2954C180.638 53.2954 181.825 52.7095 182.85 51.5376C183.876 50.3657 184.388 48.7617 184.388 46.7256C184.388 44.7334 184.015 43.1514 183.268 41.9795C182.521 40.793 181.481 40.1997 180.148 40.1997C179.166 40.1997 178.17 40.6099 177.159 41.4302C176.163 42.2358 175.35 43.415 174.721 44.9678ZM210.558 51.6475V56.5693C209.518 57.2285 208.514 57.6899 207.548 57.9536C206.581 58.2319 205.702 58.3711 204.911 58.3711C203.534 58.3711 202.274 58.188 201.132 57.8218C199.989 57.4409 199.074 56.7817 198.385 55.8442C197.711 54.8921 197.374 53.5737 197.374 51.8892C197.374 48.0366 197.374 44.1914 197.374 40.3535C197.374 36.501 197.374 32.6558 197.374 28.8179H203.527C203.527 31.9526 203.527 35.0947 203.527 38.2441C203.527 41.3789 203.527 44.521 203.527 47.6704C203.527 49.3257 203.622 50.5562 203.812 51.3618C204.003 52.1675 204.303 52.6948 204.713 52.9438C205.123 53.1782 205.658 53.2954 206.317 53.2954C207.372 53.2954 208.785 52.7461 210.558 51.6475ZM210.228 40.1338H193.2V35.7393H210.228V40.1338ZM215.634 35.4097H222.116C222.116 36.5083 222.116 37.6802 222.116 38.9253C222.116 40.1704 222.116 41.3789 222.116 42.5508C222.116 43.708 222.116 44.7188 222.116 45.583C222.116 46.4473 222.116 47.0479 222.116 47.3848C222.116 48.3223 222.13 49.4648 222.159 50.8125C222.203 52.1455 222.255 53.4492 222.313 54.7236C222.387 55.998 222.467 57.0308 222.555 57.8218H215.963C215.963 56.7671 215.963 55.5293 215.963 54.1084C215.963 52.6875 215.963 51.2739 215.963 49.8677C215.963 48.4468 215.963 47.2163 215.963 46.1763C215.963 44.0376 215.941 42.0015 215.897 40.0679C215.868 38.1196 215.78 36.5669 215.634 35.4097ZM215.194 27.3896C215.194 26.2617 215.553 25.3389 216.271 24.6211C217.003 23.9033 217.926 23.5444 219.039 23.5444C220.167 23.5444 221.09 23.9033 221.808 24.6211C222.526 25.3389 222.885 26.2617 222.885 27.3896C222.885 28.5322 222.526 29.4624 221.808 30.1802C221.09 30.8833 220.167 31.2349 219.039 31.2349C217.926 31.2349 217.003 30.8833 216.271 30.1802C215.553 29.4624 215.194 28.5322 215.194 27.3896ZM248.702 43.3198V57.8218H242.55V45.2974C242.55 43.9058 242.47 42.8584 242.308 42.1553C242.162 41.4521 241.906 40.9761 241.539 40.7271C241.173 40.478 240.668 40.3535 240.023 40.3535C239.203 40.3535 238.405 40.6758 237.628 41.3203C236.867 41.9502 236.273 42.7632 235.848 43.7593V57.8218H229.696V44.3086C229.696 42.1553 229.572 40.3242 229.323 38.8154C229.074 37.3066 228.832 36.1714 228.597 35.4097H234.31C234.559 35.8345 234.764 36.3472 234.926 36.9478C235.101 37.5483 235.241 38.0977 235.343 38.5957C236.691 37.1309 237.943 36.1641 239.1 35.6953C240.272 35.2119 241.495 34.9702 242.77 34.9702C244.205 34.9702 245.37 35.3438 246.263 36.0908C247.172 36.8379 247.809 37.6948 248.175 38.6616C249.552 37.1821 250.848 36.2007 252.064 35.7173C253.28 35.2192 254.467 34.9702 255.624 34.9702C257.85 34.9702 259.396 35.688 260.26 37.1235C261.124 38.5444 261.556 40.6099 261.556 43.3198V57.8218H255.404V45.7368C255.404 44.2573 255.331 43.1367 255.184 42.375C255.038 41.5986 254.782 41.0713 254.415 40.793C254.049 40.5 253.536 40.3535 252.877 40.3535C252.072 40.3535 251.288 40.6245 250.526 41.1665C249.779 41.6938 249.171 42.4116 248.702 43.3198ZM268.368 35.4097H274.85C274.85 36.5083 274.85 37.6802 274.85 38.9253C274.85 40.1704 274.85 41.3789 274.85 42.5508C274.85 43.708 274.85 44.7188 274.85 45.583C274.85 46.4473 274.85 47.0479 274.85 47.3848C274.85 48.3223 274.865 49.4648 274.894 50.8125C274.938 52.1455 274.989 53.4492 275.048 54.7236C275.121 55.998 275.201 57.0308 275.289 57.8218H268.698C268.698 56.7671 268.698 55.5293 268.698 54.1084C268.698 52.6875 268.698 51.2739 268.698 49.8677C268.698 48.4468 268.698 47.2163 268.698 46.1763C268.698 44.0376 268.676 42.0015 268.632 40.0679C268.602 38.1196 268.514 36.5669 268.368 35.4097ZM267.929 27.3896C267.929 26.2617 268.287 25.3389 269.005 24.6211C269.738 23.9033 270.66 23.5444 271.774 23.5444C272.902 23.5444 273.825 23.9033 274.542 24.6211C275.26 25.3389 275.619 26.2617 275.619 27.3896C275.619 28.5322 275.26 29.4624 274.542 30.1802C273.825 30.8833 272.902 31.2349 271.774 31.2349C270.66 31.2349 269.738 30.8833 269.005 30.1802C268.287 29.4624 267.929 28.5322 267.929 27.3896ZM281.552 35.4097H299.899V38.5737L288.253 53.0977H295.394C296.171 53.0977 296.969 53.083 297.789 53.0537C298.61 53.0244 299.423 52.9292 300.228 52.7681V57.8218H280.892V54.3281L292.318 40.1338H284.957C284.313 40.1338 283.683 40.1484 283.068 40.1777C282.467 40.207 281.962 40.3022 281.552 40.4634V35.4097ZM324.288 47.9341H307.413V43.979H318.685C318.685 42.4409 318.348 41.3276 317.675 40.6392C317.015 39.936 316.034 39.5845 314.73 39.5845C313.148 39.5845 311.969 40.1338 311.193 41.2324C310.431 42.3164 310.05 44.1475 310.05 46.7256C310.05 49.0547 310.519 50.7539 311.456 51.8232C312.394 52.8926 313.771 53.4272 315.587 53.4272C317.023 53.4272 318.429 53.2588 319.806 52.9219C321.198 52.585 322.575 52.0137 323.937 51.208L324.398 56.1738C322.816 56.9795 321.285 57.5435 319.806 57.8657C318.341 58.2026 316.752 58.3711 315.038 58.3711C313.104 58.3711 311.303 57.939 309.633 57.0747C307.963 56.2104 306.615 54.9287 305.59 53.2295C304.579 51.5303 304.074 49.4355 304.074 46.9453C304.074 44.5137 304.513 42.4043 305.392 40.6172C306.285 38.8301 307.553 37.4458 309.193 36.4644C310.834 35.4683 312.782 34.9702 315.038 34.9702C316.884 34.9702 318.4 35.2925 319.586 35.937C320.787 36.5669 321.725 37.4165 322.399 38.4858C323.087 39.5552 323.571 40.7563 323.849 42.0894C324.127 43.4077 324.266 44.7554 324.266 46.1323C324.266 46.3374 324.266 46.6377 324.266 47.0332C324.281 47.4287 324.288 47.729 324.288 47.9341Z" fill="black"/>
<defs>
<linearGradient id="paint0_linear_235_305" x1="59.2302" y1="13.51" x2="26.9131" y2="62.6558" gradientUnits="userSpaceOnUse">
<stop offset="0.216346" stop-color="#B9E670"/>
<stop offset="0.634615" stop-color="#6CAC49"/>
<stop offset="1" stop-color="#1E7121"/>
</linearGradient>
<linearGradient id="paint1_linear_235_305" x1="28.7003" y1="77.5483" x2="28.7003" y2="1" gradientUnits="userSpaceOnUse">
<stop stop-color="#001D67"/>
<stop offset="1" stop-color="#389DCF" stop-opacity="0.3"/>
</linearGradient>
<linearGradient id="paint2_linear_235_305" x1="28.7003" y1="77.5483" x2="28.7003" y2="1" gradientUnits="userSpaceOnUse">
<stop stop-color="#001D67"/>
<stop offset="1" stop-color="#389DCF" stop-opacity="0.3"/>
</linearGradient>
</defs>
</svg>
